<svg width="303" height="15" viewBox="0 0 303 15" fill="none" xmlns="http://www.w3.org/2000/svg">
<path d="M111.806 3.51V12H111.188V5.028C111.188 4.9 111.19 4.77 111.194 4.638C111.202 4.502 111.214 4.362 111.23 4.218C111.174 4.342 111.118 4.456 111.062 4.56C111.006 4.66 110.95 4.754 110.894 4.842L105.992 11.808C105.96 11.86 105.918 11.906 105.866 11.946C105.818 11.982 105.764 12 105.704 12H105.254V3.51H105.872V10.482C105.872 10.61 105.87 10.74 105.866 10.872C105.862 11.004 105.852 11.14 105.836 11.28C105.888 11.16 105.942 11.05 105.998 10.95C106.054 10.846 106.11 10.75 106.166 10.662L111.074 3.702C111.106 3.65 111.146 3.606 111.194 3.57C111.242 3.53 111.296 3.51 111.356 3.51H111.806ZM118.827 12H118.251V6.486H115.839C115.799 7.274 115.731 7.96 115.635 8.544C115.543 9.124 115.433 9.622 115.305 10.038C115.177 10.45 115.033 10.788 114.873 11.052C114.713 11.316 114.545 11.524 114.369 11.676C114.197 11.828 114.021 11.932 113.841 11.988C113.661 12.044 113.483 12.072 113.307 12.072C113.211 12.072 113.127 12.064 113.055 12.048C112.983 12.032 112.947 12.008 112.947 11.976V11.61H113.211C113.355 11.61 113.501 11.582 113.649 11.526C113.801 11.466 113.951 11.36 114.099 11.208C114.247 11.056 114.389 10.848 114.525 10.584C114.661 10.32 114.783 9.982 114.891 9.57C115.003 9.154 115.099 8.656 115.179 8.076C115.263 7.496 115.323 6.814 115.359 6.03H118.827V12ZM125.623 6.03V12H125.053V7.188C125.053 7.132 125.055 7.072 125.059 7.008C125.063 6.944 125.069 6.88 125.077 6.816C125.049 6.872 125.021 6.924 124.993 6.972C124.969 7.016 124.943 7.056 124.915 7.092C124.907 7.1 124.851 7.176 124.747 7.32C124.643 7.46 124.505 7.642 124.333 7.866C124.165 8.09 123.973 8.344 123.757 8.628C123.545 8.912 123.329 9.202 123.109 9.498C122.589 10.19 121.999 10.976 121.339 11.856C121.315 11.892 121.283 11.926 121.243 11.958C121.207 11.986 121.167 12 121.123 12H120.793V6.03H121.369V10.842C121.369 10.898 121.367 10.958 121.363 11.022C121.359 11.086 121.353 11.15 121.345 11.214C121.369 11.158 121.395 11.108 121.423 11.064C121.451 11.016 121.477 10.974 121.501 10.938C121.505 10.93 121.559 10.856 121.663 10.716C121.771 10.576 121.909 10.394 122.077 10.17C122.249 9.942 122.441 9.686 122.653 9.402C122.865 9.118 123.083 8.828 123.307 8.532C123.827 7.84 124.417 7.056 125.077 6.18C125.101 6.14 125.131 6.106 125.167 6.078C125.207 6.046 125.249 6.03 125.293 6.03H125.623ZM134.861 6.828C134.841 6.848 134.821 6.866 134.801 6.882C134.785 6.894 134.761 6.9 134.729 6.9C134.689 6.9 134.635 6.874 134.567 6.822C134.499 6.766 134.407 6.706 134.291 6.642C134.175 6.578 134.029 6.52 133.853 6.468C133.681 6.412 133.471 6.384 133.223 6.384C132.879 6.384 132.573 6.446 132.305 6.57C132.041 6.69 131.817 6.864 131.633 7.092C131.449 7.32 131.309 7.596 131.213 7.92C131.121 8.244 131.075 8.608 131.075 9.012C131.075 9.432 131.123 9.804 131.219 10.128C131.319 10.452 131.459 10.726 131.639 10.95C131.819 11.17 132.037 11.338 132.293 11.454C132.549 11.57 132.833 11.628 133.145 11.628C133.433 11.628 133.673 11.594 133.865 11.526C134.061 11.458 134.221 11.384 134.345 11.304C134.473 11.224 134.573 11.15 134.645 11.082C134.717 11.014 134.777 10.98 134.825 10.98C134.873 10.98 134.913 11 134.945 11.04L135.095 11.232C135.003 11.352 134.887 11.464 134.747 11.568C134.607 11.672 134.449 11.762 134.273 11.838C134.097 11.914 133.905 11.972 133.697 12.012C133.493 12.056 133.279 12.078 133.055 12.078C132.675 12.078 132.327 12.01 132.011 11.874C131.699 11.734 131.429 11.534 131.201 11.274C130.977 11.01 130.801 10.688 130.673 10.308C130.549 9.928 130.487 9.496 130.487 9.012C130.487 8.556 130.547 8.14 130.667 7.764C130.787 7.388 130.963 7.064 131.195 6.792C131.427 6.52 131.709 6.31 132.041 6.162C132.377 6.01 132.761 5.934 133.193 5.934C133.581 5.934 133.925 5.996 134.225 6.12C134.525 6.244 134.787 6.412 135.011 6.624L134.861 6.828ZM144.463 12H143.887V6.468H140.341V12H139.765V6.03H144.463V12ZM148.797 5.934C149.225 5.934 149.607 6.008 149.943 6.156C150.283 6.3 150.569 6.506 150.801 6.774C151.033 7.042 151.209 7.366 151.329 7.746C151.453 8.122 151.515 8.544 151.515 9.012C151.515 9.48 151.453 9.902 151.329 10.278C151.209 10.654 151.033 10.976 150.801 11.244C150.569 11.512 150.283 11.718 149.943 11.862C149.607 12.006 149.225 12.078 148.797 12.078C148.369 12.078 147.985 12.006 147.645 11.862C147.309 11.718 147.023 11.512 146.787 11.244C146.555 10.976 146.377 10.654 146.253 10.278C146.133 9.902 146.073 9.48 146.073 9.012C146.073 8.544 146.133 8.122 146.253 7.746C146.377 7.366 146.555 7.042 146.787 6.774C147.023 6.506 147.309 6.3 147.645 6.156C147.985 6.008 148.369 5.934 148.797 5.934ZM148.797 11.628C149.153 11.628 149.463 11.568 149.727 11.448C149.995 11.324 150.217 11.148 150.393 10.92C150.573 10.692 150.707 10.418 150.795 10.098C150.883 9.774 150.927 9.412 150.927 9.012C150.927 8.616 150.883 8.256 150.795 7.932C150.707 7.608 150.573 7.332 150.393 7.104C150.217 6.872 149.995 6.694 149.727 6.57C149.463 6.446 149.153 6.384 148.797 6.384C148.441 6.384 148.129 6.446 147.861 6.57C147.597 6.694 147.375 6.872 147.195 7.104C147.019 7.332 146.885 7.608 146.793 7.932C146.705 8.256 146.661 8.616 146.661 9.012C146.661 9.412 146.705 9.774 146.793 10.098C146.885 10.418 147.019 10.692 147.195 10.92C147.375 11.148 147.597 11.324 147.861 11.448C148.129 11.568 148.441 11.628 148.797 11.628ZM159.461 6V12H158.951V7.188C158.951 7.12 158.955 7.048 158.963 6.972C158.971 6.892 158.981 6.818 158.993 6.75L156.533 10.872C156.513 10.904 156.489 10.932 156.461 10.956C156.433 10.98 156.399 10.992 156.359 10.992H156.293C156.253 10.992 156.219 10.98 156.191 10.956C156.163 10.932 156.139 10.904 156.119 10.872L153.593 6.738C153.609 6.806 153.619 6.882 153.623 6.966C153.631 7.046 153.635 7.12 153.635 7.188V12H153.125V6H153.545C153.585 6 153.623 6.01 153.659 6.03C153.699 6.046 153.733 6.08 153.761 6.132L156.185 10.026C156.237 10.122 156.285 10.228 156.329 10.344C156.365 10.24 156.411 10.134 156.467 10.026L158.831 6.132C158.859 6.076 158.891 6.04 158.927 6.024C158.967 6.008 159.009 6 159.053 6H159.461ZM163.797 5.934C164.225 5.934 164.607 6.008 164.943 6.156C165.283 6.3 165.569 6.506 165.801 6.774C166.033 7.042 166.209 7.366 166.329 7.746C166.453 8.122 166.515 8.544 166.515 9.012C166.515 9.48 166.453 9.902 166.329 10.278C166.209 10.654 166.033 10.976 165.801 11.244C165.569 11.512 165.283 11.718 164.943 11.862C164.607 12.006 164.225 12.078 163.797 12.078C163.369 12.078 162.985 12.006 162.645 11.862C162.309 11.718 162.023 11.512 161.787 11.244C161.555 10.976 161.377 10.654 161.253 10.278C161.133 9.902 161.073 9.48 161.073 9.012C161.073 8.544 161.133 8.122 161.253 7.746C161.377 7.366 161.555 7.042 161.787 6.774C162.023 6.506 162.309 6.3 162.645 6.156C162.985 6.008 163.369 5.934 163.797 5.934ZM163.797 11.628C164.153 11.628 164.463 11.568 164.727 11.448C164.995 11.324 165.217 11.148 165.393 10.92C165.573 10.692 165.707 10.418 165.795 10.098C165.883 9.774 165.927 9.412 165.927 9.012C165.927 8.616 165.883 8.256 165.795 7.932C165.707 7.608 165.573 7.332 165.393 7.104C165.217 6.872 164.995 6.694 164.727 6.57C164.463 6.446 164.153 6.384 163.797 6.384C163.441 6.384 163.129 6.446 162.861 6.57C162.597 6.694 162.375 6.872 162.195 7.104C162.019 7.332 161.885 7.608 161.793 7.932C161.705 8.256 161.661 8.616 161.661 9.012C161.661 9.412 161.705 9.774 161.793 10.098C161.885 10.418 162.019 10.692 162.195 10.92C162.375 11.148 162.597 11.324 162.861 11.448C163.129 11.568 163.441 11.628 163.797 11.628ZM176.987 11.562V13.938C176.987 14.066 176.927 14.13 176.807 14.13H176.477V12H168.125V6.03H168.701V11.562H171.725V6.03H172.295V11.562H175.319V6.03H175.895V11.562H176.987ZM180.362 11.574C180.634 11.574 180.87 11.542 181.07 11.478C181.27 11.41 181.436 11.318 181.568 11.202C181.7 11.082 181.798 10.942 181.862 10.782C181.926 10.618 181.958 10.44 181.958 10.248C181.958 10.072 181.93 9.906 181.874 9.75C181.822 9.594 181.732 9.458 181.604 9.342C181.48 9.226 181.314 9.134 181.106 9.066C180.898 8.998 180.642 8.964 180.338 8.964H178.802V11.574H180.362ZM180.338 8.538C180.746 8.538 181.086 8.586 181.358 8.682C181.634 8.778 181.854 8.906 182.018 9.066C182.182 9.222 182.298 9.402 182.366 9.606C182.438 9.81 182.474 10.02 182.474 10.236C182.474 10.488 182.428 10.722 182.336 10.938C182.248 11.154 182.114 11.342 181.934 11.502C181.758 11.658 181.538 11.78 181.274 11.868C181.014 11.956 180.712 12 180.368 12H178.25V6.03H178.802V8.538H180.338ZM188.824 11.628C189.156 11.628 189.446 11.568 189.694 11.448C189.942 11.324 190.148 11.148 190.312 10.92C190.476 10.692 190.598 10.418 190.678 10.098C190.762 9.774 190.804 9.412 190.804 9.012C190.804 8.616 190.762 8.256 190.678 7.932C190.598 7.608 190.476 7.332 190.312 7.104C190.148 6.872 189.942 6.694 189.694 6.57C189.446 6.446 189.156 6.384 188.824 6.384C188.492 6.384 188.202 6.446 187.954 6.57C187.706 6.694 187.498 6.872 187.33 7.104C187.166 7.332 187.042 7.608 186.958 7.932C186.878 8.256 186.838 8.616 186.838 9.012C186.838 9.412 186.878 9.774 186.958 10.098C187.042 10.418 187.166 10.692 187.33 10.92C187.498 11.148 187.706 11.324 187.954 11.448C188.202 11.568 188.492 11.628 188.824 11.628ZM186.274 8.79C186.29 8.354 186.36 7.96 186.484 7.608C186.608 7.256 186.778 6.956 186.994 6.708C187.21 6.46 187.472 6.27 187.78 6.138C188.088 6.002 188.436 5.934 188.824 5.934C189.228 5.934 189.588 6.008 189.904 6.156C190.224 6.3 190.494 6.506 190.714 6.774C190.934 7.042 191.102 7.366 191.218 7.746C191.334 8.122 191.392 8.544 191.392 9.012C191.392 9.48 191.332 9.902 191.212 10.278C191.096 10.654 190.928 10.976 190.708 11.244C190.488 11.512 190.218 11.718 189.898 11.862C189.582 12.006 189.224 12.078 188.824 12.078C188.432 12.078 188.08 12.012 187.768 11.88C187.46 11.744 187.198 11.552 186.982 11.304C186.766 11.056 186.598 10.756 186.478 10.404C186.358 10.052 186.29 9.656 186.274 9.216H184.486V12H183.91V6.03H184.486V8.79H186.274Z" fill="#979797"/>
<line x1="0.25" y1="7.75" x2="98.75" y2="7.74999" stroke="#979797" stroke-width="0.5" stroke-linecap="round"/>
<line x1="198.25" y1="7.75" x2="302.75" y2="7.74999" stroke="#979797" stroke-width="0.5" stroke-linecap="round"/>
</svg>
